<svg id="visual" viewBox="0 0 900 600" width="900" height="600" xmlns="http://www.w3.org/2000/svg" xmlns:xlink="http://www.w3.org/1999/xlink" version="1.1"><rect x="0" y="0" width="900" height="600" fill="#002233"></rect><path d="M0 197L21.5 182.5C43 168 86 139 128.8 123.5C171.7 108 214.3 106 257.2 112.8C300 119.7 343 135.3 385.8 149.7C428.7 164 471.3 177 514.2 184.8C557 192.7 600 195.3 642.8 196.2C685.7 197 728.3 196 771.2 191C814 186 857 177 878.5 172.5L900 168L900 0L878.5 0C857 0 814 0 771.2 0C728.3 0 685.7 0 642.8 0C600 0 557 0 514.2 0C471.3 0 428.7 0 385.8 0C343 0 300 0 257.2 0C214.3 0 171.7 0 128.8 0C86 0 43 0 21.5 0L0 0Z" fill="#0066FF" stroke-linecap="round" stroke-linejoin="miter"></path></svg>